<svg xmlns="http://www.w3.org/2000/svg" width="32" height="32" viewBox="0 0 32 32" fill="none">
  <defs>
    <linearGradient id="gradient1" x1="0%" y1="0%" x2="100%" y2="100%">
      <stop offset="0%" stop-color="#4A90E2" />
      <stop offset="100%" stop-color="#6366F1" />
    </linearGradient>
  </defs>
  <path d="M16 2L3 8V15C3 21.6274 8.47715 27.5484 16 30C23.5228 27.5484 29 21.6274 29 15V8L16 2Z" fill="url(#gradient1)" />
  <path d="M16 6L7 10.25V15C7 19.8163 10.9772 24.1345 16 26C21.0228 24.1345 25 19.8163 25 15V10.25L16 6Z" fill="#1E1E1E" />
  <path d="M19.9834 12.5C19.9834 11.9477 19.5357 11.5 18.9834 11.5H13.0167C12.4644 11.5 12.0167 11.9477 12.0167 12.5V13.5C12.0167 14.0523 12.4644 14.5 13.0167 14.5H18.9834C19.5357 14.5 19.9834 14.0523 19.9834 13.5V12.5ZM12.0167 16.5C12.0167 15.9477 12.4644 15.5 13.0167 15.5H18.9834C19.5357 15.5 19.9834 15.9477 19.9834 16.5V17.5C19.9834 18.0523 19.5357 18.5 18.9834 18.5H16.0001H13.0167C12.4644 18.5 12.0167 18.0523 12.0167 17.5V16.5ZM18.9834 19.5C19.5357 19.5 19.9834 19.9477 19.9834 20.5V21.5C19.9834 22.0523 19.5357 22.5 18.9834 22.5H13.0167C12.4644 22.5 12.0167 22.0523 12.0167 21.5V20.5C12.0167 19.9477 12.4644 19.5 13.0167 19.5H18.9834Z" fill="white" />
</svg> 